<?xml version="1.0" standalone="no"?><!DOCTYPE svg PUBLIC "-//W3C//DTD SVG 1.1//EN" "http://www.w3.org/Graphics/SVG/1.1/DTD/svg11.dtd"><svg t="1663751251819" class="icon" viewBox="0 0 1024 1024" version="1.1" xmlns="http://www.w3.org/2000/svg" p-id="4485" width="32" height="32" xmlns:xlink="http://www.w3.org/1999/xlink"><path d="M719.402667 337.28c0 103.765333-89.856 193.792-208.298667 193.792-118.485333 0-208.341333-90.026667-208.341333-193.792 0-103.68 89.856-193.792 208.341333-193.792 118.442667 0 208.298667 90.069333 208.298667 193.792z m-44.202667 224.853333c75.221333-49.322667 124.501333-131.626667 124.501333-224.853333 0-150.912-129.194667-273.28-288.597333-273.28S222.464 186.368 222.464 337.28c0 93.482667 49.578667 176 125.184 225.28C194.901333 620.586667 85.333333 757.034667 85.333333 920.234667c0 21.973333 17.962667 39.765333 40.149334 39.765333s40.149333-17.792 40.149333-39.765333c0-166.656 151.381333-308.053333 346.368-308.053334s346.368 141.397333 346.368 308.053334c0 21.973333 17.962667 39.765333 40.106667 39.765333 22.186667 0 40.192-17.792 40.192-39.765333 0-163.626667-110.165333-300.373333-263.466667-358.101334z" p-id="4486"></path></svg>